# xmcd
# 
# Track frame offsets:
#     150
#     13797
#     26850
#     39472
#     52692
#     64450
#     76825
#     89755
#     102552
#     113847
#     127512
#     140312
#     154917
#     168502
#     181980
#     194815
#     206602
#     218550
#     230640
#     241752
#     253870
#     266310
#     279132
#     291672
#     304990
#     319520
#     333012
# 
# Disc length: 4597
# 
# Revision: 8
# Processed by: cddbd v1.5.2PL0 Copyright (c) Steve Scherf et al.
# Submitted via: fre:ac v1.0.31
# 
DISCID=8411f31b
DTITLE=Blues - The Mercury Blues 'N' Rhythm Story 1945-1955 - Disc 2
DYEAR=1996
DGENRE=Blues
TTITLE0=Sunnyland Slim - Mud Kickin' Woman (mono)
TTITLE1=Sunnyland Slim - Everytime I Get To Drinkin' (mono)
TTITLE2=Memphis Slim - Train Is Comin' (mono)
TTITLE3=Memphis Slim - The Question (mono)
TTITLE4=Ray Snead - I'm A Good Rockin' Daddy (mono)
TTITLE5=Memphis Slim - Drivin' Me Mad (mono)
TTITLE6=Memphis Slim - Never Let Me Love (mono)
TTITLE7=Memphis Slim - Train Time (mono)
TTITLE8=Memphis Slim - Blue Evening (mono)
TTITLE9=Big Bill Broonzy - Get Back (Black, Brown and White) (mono)
TTITLE10=Big Bill Broonzy - Willie Mae (mono)
TTITLE11=Big Bill Broonzy - I Know She Will (mono)
TTITLE12=Big Bill Broonzy - Leavin' Day (mono)
TTITLE13=Big Bill Broonzy - South Bound Train (mono)
TTITLE14=Big Bill Broonzy - Tomorrow (mono)
TTITLE15=Big Bill Broonzy - You Changed (mono)
TTITLE16=Robert Jr. Lockwood - (I'm Gonna) Dig Myself A Hole (mono)
TTITLE17=Robert Jr. Lockwood - Dust My Broom (mono)
TTITLE18=Robert Jr. Lockwood - Glory For Man (mono)
TTITLE19=Robert Jr. Lockwood - My Daily Wish (mono)
TTITLE20=Memphis Slim - No Mail Blues (mono)
TTITLE21=Memphis Slim - You're Gonna Need My Help Someday (mono)
TTITLE22=Sunnyland Slim - Ain't Nothing But A Child (mono)
TTITLE23=Sunnyland Slim - Brown Skinned Woman (mono)
TTITLE24=Sunnyland Slim - Hit The Road Again (mono)
TTITLE25=Sunnyland Slim - Gin Drinkin' Baby (mono)
TTITLE26=Sax Mallard and His Orchestra featuring Andrew Tibbs - Leap Year Blues (mono)
EXTD=8CD: Mercury 314 528 292-2 (1996-09-24), UPC 731452829221.
EXTT0=
EXTT1=
EXTT2=
EXTT3=
EXTT4=
EXTT5=
EXTT6=
EXTT7=
EXTT8=
EXTT9=
EXTT10=
EXTT11=
EXTT12=
EXTT13=
EXTT14=
EXTT15=
EXTT16=
EXTT17=
EXTT18=
EXTT19=
EXTT20=
EXTT21=
EXTT22=
EXTT23=
EXTT24=
EXTT25=
EXTT26=
PLAYORDER=
